<svg xmlns="http://www.w3.org/2000/svg" viewBox="5865.2 2032.9 24.8 33.945">
  <defs>
    <style>
      .cls-1 {
        fill: #757778;
      }
    </style>
  </defs>
  <path id="path" class="cls-1" d="M754.05,382.9v12.245H743.2a12.309,12.309,0,0,1,3.1-8.215A11.544,11.544,0,0,1,754.05,382.9ZM743.2,404.445v-6.2H768v6.2a11.489,11.489,0,0,1-3.72,8.68,12.627,12.627,0,0,1-8.68,3.72,11.731,11.731,0,0,1-8.68-3.72A12.345,12.345,0,0,1,743.2,404.445ZM757.15,382.9a11.888,11.888,0,0,1,7.75,4.03,11.587,11.587,0,0,1,3.1,8.215H757.15Z" transform="translate(5122 1650)"/>
</svg>
